<?xml version="1.0" standalone="no"?>
<!DOCTYPE svg PUBLIC "-//W3C//DTD SVG 20010904//EN" "http://www.w3.org/TR/2001/REC-SVG-20010904/DTD/svg10.dtd">
<!-- Created using Krita: https://krita.org -->
<svg xmlns="http://www.w3.org/2000/svg" 
    xmlns:xlink="http://www.w3.org/1999/xlink"
    xmlns:krita="http://krita.org/namespaces/svg/krita"
    xmlns:sodipodi="http://sodipodi.sourceforge.net/DTD/sodipodi-0.dtd"
    width="635.063pt"
    height="635.063pt"
    viewBox="0 0 635.063 635.063">
<defs/>
<rect id="shape0" transform="translate(0, -44.296875)" fill="none" width="635.0625" height="635.0625"/><path id="shape01" transform="translate(-3.63463533194682e-07, -4.21505390290144e-08)" fill="#262a39" fill-rule="evenodd" stroke-opacity="0" stroke="#000000" stroke-width="0" stroke-linecap="square" stroke-linejoin="bevel" d="M29.2808 18.7149C59.0433 2.83556 198.981 -0.441815 331.681 0.04508C464.381 0.531975 578.664 2.60032 614.461 25.1949C626.148 32.5717 635.666 49.3709 634.081 269.995C632.496 490.619 634.823 514.806 605.281 529.195C575.739 543.584 46.9903 561.004 20.8208 522.085C7.91836 502.897 -2.37937 504.225 0.480819 264.574C3.341 24.9226 14.1923 26.7652 29.2808 18.7149Z" sodipodi:nodetypes="czzzzzzz"/><path id="shape011" transform="translate(35.3341032971778, 42.4707389371591)" fill="#95cce9" fill-rule="evenodd" stroke-opacity="0" stroke="#000000" stroke-width="0" stroke-linecap="square" stroke-linejoin="bevel" d="M29.595 14.4093C44.9441 0.280516 268.156 0.185948 296.895 0.00926106C325.634 -0.167425 527.816 2.02618 541.695 20.3492C555.575 38.6723 564.876 145.991 564.375 208.809C563.874 271.628 561.053 380.657 541.695 396.729C522.337 412.802 349.769 418.393 282.495 417.609C215.221 416.825 39.8436 418.384 23.295 396.189C6.74641 373.994 -0.848485 299.227 0.0750209 201.609C0.998526 103.991 14.2459 28.538 29.595 14.4093Z" sodipodi:nodetypes="czzzzzzzz"/><path id="shape02" transform="translate(47.8351582106094, 54.8024421271165)" fill="#3f475d" fill-rule="evenodd" stroke-opacity="0" stroke="#000000" stroke-width="0" stroke-linecap="square" stroke-linejoin="bevel" d="M39.2848 20.5276C66.6562 2.17159 206.608 0.189404 282.105 0.007558C357.601 -0.174288 475.436 2.79436 505.485 23.2276C535.534 43.6608 540.474 166.22 540.045 206.378C539.616 246.535 542.136 352.466 507.285 373.238C472.433 394.009 443.753 393.931 276.615 393.848C109.477 393.764 39.4223 390.511 24.8848 368.198C10.3474 345.884 -1.39826 298.387 0.134844 198.008C1.66795 97.6278 11.9135 38.8835 39.2848 20.5276Z" sodipodi:nodetypes="czzzzzzzz"/><path id="shape03" transform="translate(65.4815187921958, 93.4187153251931)" fill="#8e9fb6" fill-rule="evenodd" stroke-opacity="0" stroke="#000000" stroke-width="0" stroke-linecap="square" stroke-linejoin="bevel" d="M32.7985 0.00128298C38.4748 -0.119749 43.1345 8.35107 42.6985 13.3213C42.2625 18.2915 39.2426 16.3258 29.9185 35.4613C20.5944 54.5968 17.8986 78.4761 14.0785 83.3413C10.2583 88.2065 12.9095 87.7216 7.23848 90.0013C1.56743 92.2809 0.590823 85.1076 0.0384798 82.0813C-0.513863 79.055 5.02686 48.8898 7.23848 41.4013C9.4501 33.9128 13.8429 25.1096 18.0385 16.2013C22.2341 7.29298 27.1222 0.122315 32.7985 0.00128298Z" sodipodi:nodetypes="czzzzzzzz"/><path id="shape1" transform="translate(110.463663356246, 73.9927996635628)" fill="#8e9fb6" fill-rule="evenodd" stroke-opacity="0" stroke="#000000" stroke-width="0" stroke-linecap="square" stroke-linejoin="bevel" d="M0.236337 14.2072C1.27316 11.4846 2.18169 12.0336 6.98634 8.8072C11.791 5.58079 77.4999 -1.14332 80.6963 0.167196C83.8928 1.47771 85.4753 0.499875 86.4563 5.6122C87.4374 10.7245 86.1029 8.79223 84.4763 11.5072C82.8498 14.2222 54.4082 16.4427 46.6313 18.1672C38.8545 19.8917 20.0974 24.2404 16.0313 26.0872C11.9652 27.934 11.3026 28.9962 9.23634 28.6072C7.17003 28.2182 3.65634 23.0272 2.75634 21.7672C1.85634 20.5072 -0.800487 16.9298 0.236337 14.2072Z" sodipodi:nodetypes="czzzzzzzzz"/><path id="shape04" transform="matrix(1.46792073722241 0 0 -1.46792073722241 174.896405955769 360.056169650097)" fill="#ffffff" stroke-opacity="0" stroke="#000000" stroke-width="0" stroke-linecap="square" stroke-linejoin="bevel" d="M195.729 35.388C195.729 35.388 195.404 37.382 195.214 37.364L159.032 33.873C156.153 33.595 153.917 31.299 153.715 28.414L152.721 14.167L124.729 12.17L122.825 25.082C122.401 27.954 119.893 30.119 116.99 30.119L78.802 30.119C75.9 30.119 73.392 27.954 72.968 25.082L71.063 12.17L43.071 14.167L42.077 28.414C41.875 31.3 39.639 33.596 36.76 33.874L0.56 37.364C0.373 37.382 0.236 35.386 0.049 35.386L0 27.556L30.658 22.612L31.662 8.238C31.865 5.328 34.213 2.975 37.125 2.766L75.676 0.016C75.822 0.006 75.966 0 76.11 0C79.007 0 81.511 2.166 81.935 5.038L83.894 18.324L111.899 18.324L113.858 5.038C114.281 2.167 116.788 0.001 119.689 0.001C119.831 0.001 119.973 0.006 120.112 0.016L158.668 2.766C161.579 2.975 163.928 5.328 164.131 8.238L165.134 22.612L195.779 27.578Z" sodipodi:nodetypes="ccccccccccccccccccccccccccccccccc"/><path id="shape11" transform="matrix(1.46792073722241 0 0 -1.46792073722241 154.973098223214 345.313780344061)" fill="#478cbf" stroke-opacity="0" stroke="#000000" stroke-width="0" stroke-linecap="square" stroke-linejoin="bevel" d="M13.621 84.386L13.621 36.872L13.621 30.837L13.621 25.345C13.729 25.344 13.837 25.34 13.944 25.33L50.14 21.84C52.036 21.657 53.522 20.131 53.654 18.231L54.77 2.253L86.344 0L88.519 14.747C88.801 16.659 90.441 18.076 92.375 18.076L130.563 18.076C132.496 18.076 134.136 16.659 134.418 14.747L136.593 0L168.168 2.253L169.283 18.231C169.416 20.131 170.901 21.656 172.797 21.84L208.979 25.33C209.086 25.34 209.193 25.344 209.301 25.345L209.301 30.056L209.316 30.061L209.316 84.386C214.413 90.8025 219.239 97.8802 222.937 103.835C217.286 113.455 210.362 122.052 202.961 130.017C196.097 126.562 189.43 122.648 183.133 118.483C179.982 121.615 176.433 124.177 172.947 126.855C169.522 129.606 165.662 131.623 162.001 133.973C163.091 142.09 163.63 150.081 163.847 158.421C154.401 163.175 144.328 166.327 134.139 168.591C130.071 161.754 126.351 154.35 123.111 147.112C119.269 147.754 115.409 147.992 111.544 148.038L111.544 148.044C111.517 148.044 111.492 148.038 111.469 148.038C111.445 148.038 111.42 148.044 111.396 148.044L111.396 148.038C107.524 147.992 103.667 147.754 99.824 147.112C96.586 154.35 92.868 161.754 88.794 168.591C78.61 166.327 68.536 163.175 59.091 158.421C59.307 150.081 59.846 142.09 60.939 133.973C57.271 131.623 53.416 129.606 49.99 126.855C46.509 124.177 42.954 121.615 39.802 118.483C33.505 122.648 26.84 126.562 19.974 130.017C12.573 122.052 5.653 113.455 0 103.835C4.44266 96.8613 9.20797 89.8521 13.621 84.386Z" sodipodi:nodetypes="cccccccccccccccccccccccccccccccccccccccccccc"/><path id="shape2" transform="matrix(1.46792073722241 0 0 -1.46792073722241 174.879960628881 406.443479638828)" fill="#478cbf" stroke-opacity="0" stroke="#000000" stroke-width="0" stroke-linecap="square" stroke-linejoin="bevel" d="M163.268 56.041L162.147 39.978C162.012 38.042 160.472 36.501 158.536 36.362L119.981 33.611C119.887 33.604 119.793 33.601 119.7 33.601C117.784 33.601 116.131 35.007 115.848 36.931L113.637 51.925L82.178 51.925L79.967 36.931C79.67 34.913 77.866 33.462 75.834 33.611L37.279 36.362C35.343 36.501 33.803 38.042 33.668 39.978L32.547 56.041L0 59.179C0.015 55.681 0.06 51.849 0.06 51.086C0.06 16.712 43.665 0.19 97.841 0L97.907 0L97.974 0C152.15 0.19 195.74 16.712 195.74 51.086C195.74 51.863 195.787 55.679 195.803 59.179Z" sodipodi:nodetypes="ccccccccccccccccccccc"/><path id="shape3" transform="matrix(1.46792073722241 0 0 -1.46792073722241 210.185436871249 288.645735214698)" fill="#ffffff" stroke-opacity="0" stroke="#000000" stroke-width="0" stroke-linecap="square" stroke-linejoin="bevel" d="M43.623 21.815C43.623 9.763 33.858 0 21.81 0C9.768 0 0 9.763 0 21.815C0 33.859 9.768 43.617 21.81 43.617C33.858 43.617 43.623 33.859 43.623 21.815" sodipodi:nodetypes="ccccc"/><path id="shape4" transform="matrix(1.46792073722241 0 0 -1.46792073722241 225.087930461317 279.767514806057)" fill="#414042" stroke-opacity="0" stroke="#000000" stroke-width="0" stroke-linecap="square" stroke-linejoin="bevel" d="M28.958 14.473C28.958 6.479 22.479 0 14.479 0C6.483 0 0 6.479 0 14.473C0 22.467 6.483 28.952 14.479 28.952C22.479 28.952 28.958 22.467 28.958 14.473" sodipodi:nodetypes="ccccc"/><path id="shape5" transform="matrix(1.46792073722241 0 0 -1.46792073722241 308.29140792918 291.558978906793)" fill="#ffffff" stroke-opacity="0" stroke="#000000" stroke-width="0" stroke-linecap="square" stroke-linejoin="bevel" d="M7.021 0C3.143 0 0 2.858 0 6.381L0 26.462C0 29.982 3.143 32.843 7.021 32.843C10.899 32.843 14.049 29.982 14.049 26.462L14.049 6.381C14.049 2.858 10.899 0 7.021 0" sodipodi:nodetypes="ccccccc"/><path id="shape6" transform="matrix(1.46792073722241 0 0 -1.46792073722241 361.900168807548 288.645735214698)" fill="#ffffff" stroke-opacity="0" stroke="#000000" stroke-width="0" stroke-linecap="square" stroke-linejoin="bevel" d="M0 21.815C0 9.763 9.765 0 21.815 0C33.856 0 43.623 9.763 43.623 21.815C43.623 33.859 33.856 43.617 21.815 43.617C9.765 43.617 3.55271e-15 33.859 3.55271e-15 21.815" sodipodi:nodetypes="ccccc"/><path id="shape7" transform="matrix(1.46792073722241 0 0 -1.46792073722241 369.606679416128 279.767514806057)" fill="#414042" stroke-opacity="0" stroke="#000000" stroke-width="0" stroke-linecap="square" stroke-linejoin="bevel" d="M0 14.473C0 6.479 6.477 0 14.471 0C22.473 0 28.95 6.479 28.95 14.473C28.95 22.467 22.473 28.952 14.471 28.952C6.477 28.952 0 22.467 0 14.473" sodipodi:nodetypes="ccccc"/><ellipse id="shape8" transform="translate(292.32, 473.649508525577)" rx="25.2" ry="25.9691073219659" cx="25.2" cy="25.9691073219659" fill="#95cce9" fill-rule="evenodd" stroke-opacity="0" stroke="#000000" stroke-width="0" stroke-linecap="square" stroke-linejoin="bevel"/><circle id="shape9" transform="translate(166.32, 481.68)" r="14.4" cx="14.4" cy="14.4" fill="#95cce9" fill-rule="evenodd" stroke-opacity="0" stroke="#000000" stroke-width="0" stroke-linecap="square" stroke-linejoin="bevel"/><circle id="shape05" transform="translate(447.242768304915, 481.68)" r="14.4" cx="14.4" cy="14.4" fill="#95cce9" fill-rule="evenodd" stroke-opacity="0" stroke="#000000" stroke-width="0" stroke-linecap="square" stroke-linejoin="bevel"/>
</svg>
