<?xml version="1.0" standalone="no"?>
<!DOCTYPE svg PUBLIC "-//W3C//DTD SVG 20010904//EN" "http://www.w3.org/TR/2001/REC-SVG-20010904/DTD/svg10.dtd">
<!-- Created using Krita: https://krita.org -->
<svg xmlns="http://www.w3.org/2000/svg" 
    xmlns:xlink="http://www.w3.org/1999/xlink"
    xmlns:krita="http://krita.org/namespaces/svg/krita"
    xmlns:sodipodi="http://sodipodi.sourceforge.net/DTD/sodipodi-0.dtd"
    width="98.8594pt"
    height="98.8594pt"
    viewBox="0 0 98.8594 98.8594">
<defs/>
<path id="shape0" transform="matrix(0.2926835859375 0 0 -0.2926835859375 7.34743839241407 57.6884966532188)" fill="#ffffff" stroke-opacity="0" stroke="#000000" stroke-width="0" stroke-linecap="square" stroke-linejoin="bevel" d="M195.729 35.388C195.729 35.388 195.404 37.382 195.214 37.364L159.032 33.873C156.153 33.595 153.917 31.299 153.715 28.414L152.721 14.167L124.729 12.17L122.825 25.082C122.401 27.954 119.893 30.119 116.99 30.119L78.802 30.119C75.9 30.119 73.392 27.954 72.968 25.082L71.063 12.17L43.071 14.167L42.077 28.414C41.875 31.3 39.639 33.596 36.76 33.874L0.56 37.364C0.373 37.382 0.236 35.386 0.049 35.386L0 27.556L30.658 22.612L31.662 8.238C31.865 5.328 34.213 2.975 37.125 2.766L75.676 0.016C75.822 0.006 75.966 0 76.11 0C79.007 0 81.511 2.166 81.935 5.038L83.894 18.324L111.899 18.324L113.858 5.038C114.281 2.167 116.788 0.001 119.689 0.001C119.831 0.001 119.973 0.006 120.112 0.016L158.668 2.766C161.579 2.975 163.928 5.328 164.131 8.238L165.134 22.612L195.779 27.578Z" sodipodi:nodetypes="ccccccccccccccccccccccccccccccccc"/><path id="shape1" transform="matrix(0.2926835859375 0 0 -0.2926835859375 3.37499968844531 54.7490631688594)" fill="#478cbf" stroke-opacity="0" stroke="#000000" stroke-width="0" stroke-linecap="square" stroke-linejoin="bevel" d="M13.621 84.386L13.621 36.872L13.621 30.837L13.621 25.345C13.729 25.344 13.837 25.34 13.944 25.33L50.14 21.84C52.036 21.657 53.522 20.131 53.654 18.231L54.77 2.253L86.344 0L88.519 14.747C88.801 16.659 90.441 18.076 92.375 18.076L130.563 18.076C132.496 18.076 134.136 16.659 134.418 14.747L136.593 0L168.168 2.253L169.283 18.231C169.416 20.131 170.901 21.656 172.797 21.84L208.979 25.33C209.086 25.34 209.193 25.344 209.301 25.345L209.301 30.056L209.316 30.061L209.316 84.386C214.413 90.8025 219.239 97.8802 222.937 103.835C217.286 113.455 210.362 122.052 202.961 130.017C196.097 126.562 189.43 122.648 183.133 118.483C179.982 121.615 176.433 124.177 172.947 126.855C169.522 129.606 165.662 131.623 162.001 133.973C163.091 142.09 163.63 150.081 163.847 158.421C154.401 163.175 144.328 166.327 134.139 168.591C130.071 161.754 126.351 154.35 123.111 147.112C119.269 147.754 115.409 147.992 111.544 148.038L111.544 148.044C111.517 148.044 111.492 148.038 111.469 148.038C111.445 148.038 111.42 148.044 111.396 148.044L111.396 148.038C107.524 147.992 103.667 147.754 99.824 147.112C96.586 154.35 92.868 161.754 88.794 168.591C78.61 166.327 68.536 163.175 59.091 158.421C59.307 150.081 59.846 142.09 60.939 133.973C57.271 131.623 53.416 129.606 49.99 126.855C46.509 124.177 42.954 121.615 39.802 118.483C33.505 122.648 26.84 126.562 19.974 130.017C12.573 122.052 5.653 113.455 0 103.835C4.44266 96.8613 9.20797 89.8521 13.621 84.386Z" sodipodi:nodetypes="cccccccccccccccccccccccccccccccccccccccccccc"/><path id="shape2" transform="matrix(0.2926835859375 0 0 -0.2926835859375 7.34415941615628 94.9921859166883)" fill="#478cbf" stroke-opacity="0" stroke="#000000" stroke-width="0" stroke-linecap="square" stroke-linejoin="bevel" d="M163.268 151.894L162.147 135.831C162.012 133.895 160.472 132.354 158.536 132.215L119.981 129.464C119.887 129.457 119.793 129.454 119.7 129.454C117.784 129.454 116.131 130.86 115.848 132.784L113.637 147.778L82.178 147.778L79.967 132.784C79.67 130.766 77.866 129.315 75.834 129.464L37.279 132.215C35.343 132.354 33.803 133.895 33.668 135.831L32.547 151.894L0 155.032C0.015 151.534 0.06 51.849 0.06 51.086C0.06 16.712 43.7213 0.19 97.8973 0L97.907 1.07397e-08L97.9027 5.68434e-14C152.079 0.19 195.74 16.712 195.74 51.086C195.74 51.863 195.787 151.532 195.803 155.032Z" sodipodi:nodetypes="ccccccccccccccccccccc"/><path id="shape3" transform="matrix(0.2926835859375 0 0 -0.2926835859375 14.5989323681484 43.4502196850391)" fill="#ffffff" stroke-opacity="0" stroke="#000000" stroke-width="0" stroke-linecap="square" stroke-linejoin="bevel" d="M43.623 21.815C43.623 9.763 33.858 0 21.81 0C9.768 0 0 9.763 0 21.815C0 33.859 9.768 43.617 21.81 43.617C33.858 43.617 43.623 33.859 43.623 21.815" sodipodi:nodetypes="ccccc"/><path id="shape4" transform="matrix(0.2926835859375 0 0 -0.2926835859375 17.3549510621719 41.6800223439609)" fill="#414042" stroke-opacity="0" stroke="#000000" stroke-width="0" stroke-linecap="square" stroke-linejoin="bevel" d="M28.958 14.473C28.958 6.479 22.479 0 14.479 0C6.483 0 0 6.479 0 14.473C0 22.467 6.483 28.952 14.479 28.952C22.479 28.952 28.958 22.467 28.958 14.473" sodipodi:nodetypes="ccccc"/><path id="shape5" transform="matrix(0.2926835859375 0 0 -0.2926835859375 33.9446016681328 44.0310811640625)" fill="#ffffff" stroke-opacity="0" stroke="#000000" stroke-width="0" stroke-linecap="square" stroke-linejoin="bevel" d="M7.021 0C3.143 0 0 2.858 0 6.381L0 26.462C0 29.982 3.143 32.843 7.021 32.843C10.899 32.843 14.049 29.982 14.049 26.462L14.049 6.381C14.049 2.858 10.899 0 7.021 0" sodipodi:nodetypes="ccccccc"/><path id="shape6" transform="matrix(0.2926835859375 0 0 -0.2926835859375 44.63346515625 43.4502196850391)" fill="#ffffff" stroke-opacity="0" stroke="#000000" stroke-width="0" stroke-linecap="square" stroke-linejoin="bevel" d="M0 21.815C0 9.763 9.765 0 21.815 0C33.856 0 43.623 9.763 43.623 21.815C43.623 33.859 33.856 43.617 21.815 43.617C9.765 43.617 3.55271e-15 33.859 3.55271e-15 21.815" sodipodi:nodetypes="ccccc"/><path id="shape7" transform="matrix(0.2926835859375 0 0 -0.2926835859375 46.170039375 41.6800223439609)" fill="#414042" stroke-opacity="0" stroke="#000000" stroke-width="0" stroke-linecap="square" stroke-linejoin="bevel" d="M0 14.473C0 6.479 6.477 0 14.471 0C22.473 0 28.95 6.479 28.95 14.473C28.95 22.467 22.473 28.952 14.471 28.952C6.477 28.952 0 22.467 0 14.473" sodipodi:nodetypes="ccccc"/><path id="shape01" transform="matrix(6.12323399573677e-17 1 -1 6.12323399573677e-17 45.7546661598115 66.6897324801062)" fill="#ffffff" stroke="#ffffff" stroke-width="4.27359375" stroke-linecap="square" stroke-linejoin="bevel" d="M0.030267 0.000225734C0.0848198 -0.0574127 17.8262 10.9419 17.8259 11.1224C17.8256 11.3029 0.0534889 20.0434 0.030267 20.0202C0.007045 19.997 -0.0242858 0.0578642 0.030267 0.000225734Z" sodipodi:nodetypes="czzz"/>
</svg>
